<svg preserveAspectRatio="none" width="100%" height="100%" overflow="visible" style="display: block;" viewBox="0 0 21.3333 24" fill="none" xmlns="http://www.w3.org/2000/svg">
<g id="Group">
<g id="Vector">
<path d="M9.50592 1.92697C9.50602 1.75058 9.5358 1.57594 9.59356 1.41302C9.65131 1.2501 9.73592 1.1021 9.84254 0.977458C9.94916 0.852814 10.0757 0.753975 10.215 0.686582C10.3542 0.619189 10.5034 0.584561 10.6541 0.584679C10.8048 0.584796 10.954 0.619656 11.0932 0.687266C11.2323 0.754876 11.3588 0.853915 11.4653 0.978724C11.5717 1.10353 11.6562 1.25167 11.7137 1.41468C11.7713 1.57769 11.8009 1.75237 11.8008 1.92876L9.50592 1.92697ZM11.8 12.9393C11.8 13.2955 11.6791 13.6372 11.4639 13.8891C11.2488 14.141 10.9569 14.2825 10.6526 14.2825C10.3483 14.2825 10.0564 14.141 9.84123 13.8891C9.62605 13.6372 9.50516 13.2955 9.50516 12.9393H11.8ZM9.50516 12.9559C9.50516 12.5996 9.62605 12.258 9.84123 12.0061C10.0564 11.7542 10.3483 11.6127 10.6526 11.6127C10.9569 11.6127 11.2488 11.7542 11.4639 12.0061C11.6791 12.258 11.8 12.5996 11.8 12.9559H9.50516ZM11.8 22.6568C11.8 23.013 11.6791 23.3547 11.4639 23.6066C11.2488 23.8585 10.9569 24 10.6526 24C10.3483 24 10.0564 23.8585 9.84123 23.6066C9.62605 23.3547 9.50516 23.013 9.50516 22.6568H11.8ZM11.8008 1.92876V1.96279L9.50592 1.961V1.92697L11.8008 1.92876ZM11.8008 1.96279V2.36082L9.50592 2.35858V1.961L11.8008 1.96279ZM11.8008 2.36082V2.7584L9.50592 2.75661V2.35858L11.8008 2.36082ZM11.8008 2.7584L11.8004 3.15643L9.50554 3.15464L9.50592 2.75661L11.8008 2.7584ZM11.8004 3.15643L11.8 3.55446L9.50516 3.55267L9.50554 3.15464L11.8004 3.15643ZM11.8 3.55446V3.9525L9.50516 3.9516V3.55267L11.8 3.55446ZM11.8 3.9525V12.9393H9.50516V3.9516L11.8 3.9525ZM11.8 12.9559V22.6568H9.50516V12.9559H11.8Z" fill="#00A24D"/>
<path d="M10.6674 0C11.0816 6.61404e-05 11.4918 0.0959919 11.8746 0.281581C12.2574 0.467231 12.605 0.739596 12.898 1.0826L20.9973 10.5636C21.4453 11.0882 21.4454 11.9384 20.9973 12.463C20.5491 12.9874 19.8228 12.9875 19.3747 12.463L11.2754 2.98194C11.1955 2.88839 11.1005 2.81396 10.9961 2.76333C10.8918 2.71279 10.7802 2.68644 10.6674 2.68637C10.5543 2.68637 10.4416 2.71269 10.3372 2.76333C10.2329 2.81395 10.1376 2.88852 10.0578 2.98194L1.95852 12.463C1.51046 12.9872 0.784025 12.9872 0.335974 12.463C-0.112049 11.9385 -0.111934 11.0882 0.335974 10.5636L8.43525 1.0826C8.72809 0.739757 9.07608 0.467225 9.45867 0.281581C9.84153 0.0959276 10.253 0 10.6674 0Z" fill="#00A24D"/>
</g>
</g>
</svg>
