<svg width="26" height="26" viewBox="0 0 26 26" fill="none" xmlns="http://www.w3.org/2000/svg">
<path d="M19.1391 21.7299C20.0273 21.7299 20.8792 21.377 21.5072 20.749M19.1391 21.7299C18.2508 21.7299 17.399 21.377 16.7709 20.749M19.1391 21.7299V24.242M21.5072 20.749C22.1353 20.1209 22.4882 19.269 22.4882 18.3808M21.5072 20.749L23.2836 22.5253M22.4882 18.3808C22.4882 17.4925 22.1353 16.6407 21.5072 16.0126M22.4882 18.3808H25.0003M21.5072 16.0126C20.8792 15.3845 20.0273 15.0317 19.1391 15.0317M21.5072 16.0126L23.2836 14.2363M19.1391 15.0317C18.2508 15.0317 17.399 15.3845 16.7709 16.0126M19.1391 15.0317V12.5196M16.7709 16.0126C16.1428 16.6407 15.79 17.4925 15.79 18.3808M16.7709 16.0126L14.9946 14.2363M15.79 18.3808C15.79 19.269 16.1428 20.1209 16.7709 20.749M15.79 18.3808H13.2779M16.7709 20.749L14.9946 22.5253M18.5807 12.5196H19.6974M22.8885 13.8423L23.6786 14.6313M25.0003 17.8224V18.9391M23.6786 22.1313L22.8885 22.9203M19.6974 24.242H18.5807M15.3896 22.9203L14.5996 22.1313M13.2779 18.9391V17.8224M14.5996 14.6313L15.3896 13.8423M4.20312 7.40569V17.0142H9.0074" stroke="white" stroke-width="2" stroke-linecap="round" stroke-linejoin="round"/>
<path d="M4.20312 13.8114L7.07394 10.9406C7.22266 10.7918 7.39925 10.6737 7.59361 10.5932C7.78797 10.5126 7.9963 10.4712 8.20668 10.4712C8.41707 10.4712 8.6254 10.5126 8.81976 10.5932C9.01412 10.6737 9.1907 10.7918 9.33942 10.9406L9.95971 11.5598C10.1318 11.7319 10.3409 11.8625 10.571 11.9417C10.8011 12.0209 11.0463 12.0466 11.2878 12.0169C11.5294 11.9871 11.761 11.9027 11.965 11.7701C12.1691 11.6374 12.3402 11.46 12.4654 11.2513L12.8465 10.6107" stroke="white" stroke-width="2" stroke-linecap="round" stroke-linejoin="round"/>
<path d="M9.80783 21.8185H2.60142C2.1767 21.8185 1.76937 21.6498 1.46905 21.3495C1.16872 21.0491 1 20.6418 1 20.2171V2.60142C1 2.1767 1.16872 1.76937 1.46905 1.46905C1.76937 1.16872 2.1767 1 2.60142 1H13.9491C14.3735 1.00009 14.7806 1.16866 15.0808 1.46868L18.147 4.53488C18.447 4.83509 18.6156 5.24212 18.6157 5.66655V8.20641" stroke="white" stroke-width="2" stroke-linecap="round" stroke-linejoin="round"/>
</svg>
