<svg preserveAspectRatio="none" width="100%" height="100%" overflow="visible" style="display: block;" viewBox="0 0 390 64" fill="none" xmlns="http://www.w3.org/2000/svg">
<g id="Frame 733">
<g id="Vector">
<path fill-rule="evenodd" clip-rule="evenodd" d="M205.527 35.499C205.726 35.499 205.875 35.5843 205.974 35.755C206.088 35.9256 206.145 36.1532 206.145 36.4376C206.145 36.6652 206.081 36.8714 205.953 37.0563C205.84 37.2412 205.648 37.3336 205.378 37.3336C206.812 37.3336 207.968 36.6509 208.848 35.2856C209.245 35.9256 209.756 36.4305 210.38 36.8003C211.019 37.1558 211.75 37.3336 212.573 37.3336C213.282 37.3336 213.928 37.1914 214.51 36.9069C215.092 36.6083 215.588 36.1958 216 35.6696C216.468 36.7789 217.376 37.3336 218.725 37.3336L219.385 35.3923C219.2 35.4634 219.03 35.499 218.874 35.499C218.42 35.499 218.086 35.3283 217.873 34.987C217.674 34.6456 217.575 34.0839 217.575 33.3017V19.1152C217.263 19.0156 216.944 18.9658 216.617 18.9658C216.234 18.9658 215.908 19.0156 215.638 19.1152V27.7337C215.312 27.4066 214.907 27.1506 214.425 26.9657C213.942 26.7666 213.453 26.6671 212.956 26.6671C212.019 26.6671 211.182 26.9088 210.444 27.3924C209.72 27.8759 209.146 28.5373 208.72 29.3764C208.294 30.2155 208.081 31.1755 208.081 32.2563C208.081 32.4554 208.088 32.6546 208.102 32.8537C207.79 33.6643 207.4 34.3114 206.932 34.795C206.478 35.2643 206.01 35.499 205.527 35.499ZM210.742 34.6456C210.288 34.0625 210.061 33.2661 210.061 32.2563C210.061 31.531 210.196 30.891 210.465 30.3364C210.735 29.7675 211.104 29.3195 211.572 28.9924C212.041 28.6653 212.58 28.5017 213.19 28.5017C213.658 28.5017 214.112 28.6226 214.552 28.8644C214.992 29.0919 215.354 29.3977 215.638 29.7817V32.171C215.638 33.1665 215.361 33.9701 214.808 34.5816C214.269 35.1932 213.552 35.499 212.658 35.499C211.849 35.499 211.21 35.2145 210.742 34.6456Z" fill="#FFFFFF"/>
<path d="M119.554 31.4029C119.242 31.3318 118.951 31.2109 118.681 31.0402C118.412 30.8695 118.184 30.6349 118 30.3362L118.724 29.2482C119.405 28.2385 120.015 27.5558 120.554 27.2003C121.108 26.8447 121.704 26.6669 122.343 26.6669C123.18 26.6669 123.84 26.9656 124.322 27.5629C124.819 28.146 125.067 28.914 125.067 29.8669V32.4695C125.067 33.5077 125.195 34.2757 125.45 34.7735C125.72 35.257 126.132 35.4988 126.685 35.4988C127.395 35.4988 127.92 35.1148 128.26 34.3468C128.601 33.5788 128.771 32.5335 128.771 31.2109V29.9309C128.899 29.8882 129.041 29.8527 129.197 29.8242C129.367 29.7958 129.537 29.7816 129.708 29.7816C130.063 29.7816 130.382 29.8313 130.666 29.9309V31.2109C130.666 32.7042 130.808 33.7922 131.091 34.4748C131.389 35.1575 131.836 35.4988 132.433 35.4988C132.915 35.4988 133.312 35.2855 133.625 34.8588C133.937 34.4179 134.171 33.8206 134.327 33.0668C134.483 32.2989 134.561 31.4171 134.561 30.4215C134.561 30.3362 134.561 30.2509 134.561 30.1655C133.866 29.9096 133.355 29.5682 133.029 29.1416C133.085 28.7149 133.206 28.3167 133.39 27.9469C133.589 27.5629 133.83 27.2571 134.114 27.0296C134.398 26.7878 134.682 26.6669 134.966 26.6669C135.42 26.6669 135.789 27.0083 136.073 27.6909C136.356 28.3736 136.498 29.2553 136.498 30.3362C136.498 31.7158 136.342 32.9317 136.03 33.9842C135.718 35.0366 135.249 35.8615 134.625 36.4588C134.015 37.0419 133.263 37.3335 132.369 37.3335C131.787 37.3335 131.262 37.1841 130.793 36.8855C130.325 36.5868 129.949 36.1601 129.665 35.6055C129.325 36.1459 128.885 36.5726 128.345 36.8855C127.806 37.1841 127.203 37.3335 126.536 37.3335C125.458 37.3335 124.62 36.9281 124.024 36.1175C123.428 35.3068 123.13 34.1691 123.13 32.7042V30.2295C123.13 29.6891 123.052 29.2696 122.896 28.9709C122.754 28.658 122.513 28.5016 122.172 28.5016C121.959 28.5016 121.718 28.6011 121.448 28.8002C121.193 28.9851 120.845 29.4189 120.405 30.1015L119.554 31.4029Z" fill="#FFFFFF"/>
<path d="M141.353 37.0348C141.211 37.0775 141.055 37.113 140.885 37.1415C140.714 37.1699 140.551 37.1841 140.395 37.1841C140.069 37.1841 139.735 37.1344 139.394 37.0348V30.1015C138.884 30.2722 138.351 30.4073 137.798 30.5069C137.23 30.5922 136.719 30.6349 136.265 30.6349C135.769 30.6349 135.407 30.5709 135.18 30.4429C134.953 30.3149 134.839 30.066 134.839 29.6962C134.839 29.4402 134.889 29.2553 134.988 29.1416C135.087 29.0136 135.201 28.9496 135.329 28.9496H135.903C136.471 28.9496 137.046 28.8927 137.628 28.7789C138.21 28.6651 138.798 28.4873 139.394 28.2456V20.4163C139.394 18.9941 139.693 17.899 140.289 17.131C140.899 16.3631 141.779 15.9862 142.928 16.0004C143.978 16.0146 144.794 16.4128 145.376 17.195C145.972 17.9773 146.27 18.9941 146.27 20.2457C146.27 21.5968 146.043 22.8767 145.589 24.0856C145.135 25.2803 144.553 26.3327 143.843 27.2429C144.127 27.186 144.411 27.1576 144.695 27.1576C145.759 27.1576 146.604 27.5345 147.228 28.2882C147.867 29.042 148.186 30.0518 148.186 31.3175V33.1522C148.186 33.9771 148.285 34.5744 148.484 34.9442C148.697 35.3139 149.045 35.4988 149.527 35.4988C149.754 35.4988 149.917 35.5913 150.017 35.7761C150.116 35.9468 150.166 36.1673 150.166 36.4375C150.166 36.7077 150.095 36.921 149.953 37.0775C149.825 37.2481 149.641 37.3335 149.399 37.3335C148.378 37.3335 147.59 37.0064 147.036 36.3521C146.497 35.6837 146.228 34.745 146.228 33.5362V31.2749C146.228 30.5495 146.064 29.9878 145.738 29.5896C145.426 29.1771 144.979 28.9709 144.397 28.9709C143.829 28.9709 143.318 29.1629 142.864 29.5469C142.41 29.9167 142.048 30.4287 141.779 31.0829C141.509 31.7371 141.367 32.4909 141.353 33.3442V37.0348ZM141.289 20.395V27.3709C142.268 26.5176 143.027 25.4794 143.567 24.2563C144.106 23.019 144.376 21.675 144.376 20.2243C144.376 19.4279 144.241 18.8235 143.971 18.411C143.716 17.9844 143.34 17.771 142.843 17.771C141.807 17.771 141.289 18.6457 141.289 20.395Z" fill="#FFFFFF"/>
<path d="M149.548 35.4988C150.031 35.4988 150.499 35.2642 150.953 34.7948C151.421 34.3113 151.812 33.6642 152.124 32.8535C152.11 32.6544 152.103 32.4553 152.103 32.2562C152.103 31.1753 152.315 30.2153 152.741 29.3762C153.167 28.5371 153.742 27.8758 154.465 27.3923C155.203 26.9087 156.041 26.6669 156.977 26.6669C157.474 26.6669 157.964 26.7665 158.446 26.9656C158.929 27.1505 159.333 27.4065 159.659 27.7336V26.8589C159.787 26.8163 159.936 26.7807 160.106 26.7523C160.277 26.7238 160.454 26.7096 160.639 26.7096C160.979 26.7096 161.299 26.7594 161.597 26.8589V33.1095C161.597 33.8633 161.71 34.4535 161.937 34.8802C162.178 35.2926 162.576 35.4988 163.129 35.4988C163.37 35.4988 163.534 35.5984 163.619 35.7975C163.704 35.9966 163.747 36.2099 163.747 36.4375C163.747 36.665 163.683 36.8712 163.555 37.0561C163.441 37.241 163.25 37.3335 162.98 37.3335C161.589 37.3335 160.66 36.7077 160.192 35.4562C159.78 36.0393 159.262 36.5015 158.638 36.8428C158.027 37.1699 157.346 37.3335 156.594 37.3335C155.771 37.3335 155.04 37.1557 154.402 36.8001C153.777 36.4304 153.266 35.9255 152.869 35.2855C151.989 36.6508 150.833 37.3335 149.399 37.3335C149.215 37.3335 149.066 37.2481 148.952 37.0775C148.839 36.9068 148.782 36.6864 148.782 36.4161C148.782 35.8046 149.037 35.4988 149.548 35.4988ZM154.082 32.2562C154.082 33.266 154.309 34.0624 154.763 34.6455C155.232 35.2144 155.87 35.4988 156.679 35.4988C157.573 35.4988 158.29 35.193 158.829 34.5815C159.383 33.9699 159.659 33.1664 159.659 32.1709V29.7816C159.376 29.3976 159.014 29.0918 158.574 28.8642C158.134 28.6225 157.68 28.5016 157.211 28.5016C156.601 28.5016 156.062 28.6651 155.594 28.9922C155.125 29.3193 154.756 29.7673 154.487 30.3362C154.217 30.8909 154.082 31.5309 154.082 32.2562Z" fill="#FFFFFF"/>
<path d="M163.123 35.4988C163.478 35.4988 163.882 35.3922 164.336 35.1788C164.804 34.9655 165.259 34.6028 165.698 34.0908C166.138 33.5788 166.5 32.8891 166.784 32.0215C167.068 31.1398 167.21 30.0376 167.21 28.7149V26.6669H165.635C165.535 26.4394 165.486 26.1549 165.486 25.8136C165.486 25.4723 165.535 25.1878 165.635 24.9603H167.21V21.1843C167.479 21.0848 167.806 21.035 168.189 21.035C168.53 21.035 168.856 21.0848 169.168 21.1843V24.9603H172.34C172.453 25.1878 172.51 25.4723 172.51 25.8136C172.51 26.1549 172.453 26.4394 172.34 26.6669H169.168V31.0829C169.168 32.5051 169.381 33.6002 169.807 34.3682C170.247 35.1219 170.864 35.4988 171.659 35.4988C172.07 35.4988 172.276 35.8117 172.276 36.4375C172.276 36.7077 172.205 36.921 172.063 37.0775C171.935 37.2481 171.751 37.3335 171.51 37.3335C170.587 37.3335 169.807 37.0704 169.168 36.5441C168.544 36.0179 168.083 35.2855 167.785 34.3468C167.189 35.3708 166.458 36.1246 165.592 36.6081C164.726 37.0917 163.854 37.3335 162.974 37.3335C162.789 37.3335 162.64 37.241 162.527 37.0561C162.413 36.8855 162.356 36.6721 162.356 36.4161C162.356 36.1459 162.42 35.9255 162.548 35.7548C162.676 35.5842 162.867 35.4988 163.123 35.4988Z" fill="#FFFFFF"/>
<path d="M171.667 35.4988C171.965 35.4988 172.284 35.4064 172.624 35.2215C172.965 35.0366 173.284 34.7522 173.582 34.3682C173.937 33.8846 174.193 33.33 174.349 32.7042C174.519 32.0784 174.625 31.4455 174.668 30.8055V26.9656C174.796 26.9229 174.945 26.8874 175.115 26.8589C175.285 26.8305 175.463 26.8163 175.647 26.8163C175.974 26.8163 176.293 26.866 176.605 26.9656V33.1095C176.605 33.8633 176.719 34.4535 176.946 34.8802C177.187 35.2926 177.584 35.4988 178.138 35.4988C178.379 35.4988 178.542 35.5984 178.627 35.7975C178.713 35.9966 178.755 36.2099 178.755 36.4375C178.755 36.665 178.691 36.8712 178.564 37.0561C178.45 37.241 178.258 37.3335 177.989 37.3335C176.513 37.3335 175.555 36.6366 175.115 35.2428C174.916 35.5699 174.704 35.8473 174.476 36.0748C174.093 36.4588 173.646 36.7646 173.135 36.9921C172.639 37.2197 172.099 37.3335 171.518 37.3335C171.319 37.3335 171.17 37.2339 171.071 37.0348C170.957 36.8499 170.9 36.6437 170.9 36.4161C170.9 36.1744 170.964 35.961 171.092 35.7761C171.205 35.5913 171.397 35.4988 171.667 35.4988ZM175.669 23.8936C175.271 23.8936 174.931 23.7514 174.647 23.467C174.363 23.1825 174.221 22.8412 174.221 22.443C174.221 22.0163 174.356 21.6679 174.625 21.3977C174.909 21.1274 175.257 20.9923 175.669 20.9923C176.094 20.9923 176.442 21.1274 176.712 21.3977C176.981 21.6679 177.116 22.0163 177.116 22.443C177.116 22.8554 176.974 23.2039 176.69 23.4883C176.421 23.7585 176.08 23.8936 175.669 23.8936Z" fill="#FFFFFF"/>
<path d="M177.983 37.3335C177.798 37.3335 177.649 37.2481 177.536 37.0775C177.422 36.9068 177.365 36.6864 177.365 36.4161C177.365 36.1317 177.436 35.9113 177.578 35.7548C177.706 35.5842 177.883 35.4988 178.11 35.4988C178.735 35.4988 179.331 35.2215 179.898 34.6668C180.48 34.0979 181.126 33.1522 181.836 31.8295V20.4163C181.836 18.9941 182.134 17.899 182.73 17.131C183.34 16.3631 184.22 15.9862 185.369 16.0004C186.419 16.0146 187.235 16.4128 187.817 17.195C188.413 17.9773 188.711 18.9941 188.711 20.2457C188.711 21.2554 188.527 22.379 188.158 23.6163C187.789 24.8536 187.299 26.0412 186.689 27.1789C186.831 27.1647 186.98 27.1576 187.136 27.1576C188.2 27.1576 189.045 27.5345 189.669 28.2882C190.308 29.042 190.627 30.0518 190.627 31.3175V33.1522C190.627 33.9771 190.726 34.5744 190.925 34.9442C191.138 35.3139 191.486 35.4988 191.968 35.4988C192.195 35.4988 192.358 35.5913 192.458 35.7761C192.557 35.9468 192.607 36.1673 192.607 36.4375C192.607 36.7077 192.536 36.921 192.394 37.0775C192.266 37.2481 192.082 37.3335 191.84 37.3335C190.819 37.3335 190.031 37.0064 189.478 36.3521C188.938 35.6837 188.669 34.745 188.669 33.5362V31.2749C188.669 30.5495 188.505 29.9878 188.179 29.5896C187.867 29.1771 187.42 28.9709 186.838 28.9709C186.27 28.9709 185.759 29.1629 185.305 29.5469C184.851 29.9167 184.489 30.4287 184.22 31.0829C183.95 31.7371 183.808 32.4909 183.794 33.3442V37.0348C183.652 37.0775 183.496 37.113 183.326 37.1415C183.155 37.1699 182.992 37.1841 182.836 37.1841C182.51 37.1841 182.176 37.1344 181.836 37.0348V35.2855C181.254 36.0393 180.658 36.5726 180.047 36.8855C179.451 37.1841 178.763 37.3335 177.983 37.3335ZM183.73 20.395V28.6296C184.369 27.6482 184.915 26.6598 185.369 25.6643C185.837 24.6687 186.192 23.7087 186.434 22.7843C186.689 21.8457 186.817 20.9923 186.817 20.2243C186.817 19.4279 186.682 18.8235 186.412 18.411C186.157 17.9844 185.781 17.771 185.284 17.771C184.248 17.771 183.73 18.6457 183.73 20.395Z" fill="#FFFFFF"/>
<path d="M191.997 35.4988C192.48 35.4988 192.948 35.2642 193.402 34.7948C193.87 34.3113 194.261 33.6642 194.573 32.8535C194.559 32.6544 194.552 32.4553 194.552 32.2562C194.552 31.1753 194.765 30.2153 195.19 29.3762C195.616 28.5371 196.191 27.8758 196.914 27.3923C197.652 26.9087 198.49 26.6669 199.426 26.6669C199.923 26.6669 200.413 26.7665 200.895 26.9656C201.378 27.1505 201.782 27.4065 202.108 27.7336V26.8589C202.236 26.8163 202.385 26.7807 202.556 26.7523C202.726 26.7238 202.903 26.7096 203.088 26.7096C203.428 26.7096 203.748 26.7594 204.046 26.8589V33.1095C204.046 33.8633 204.159 34.4535 204.386 34.8802C204.627 35.2926 205.025 35.4988 205.578 35.4988C205.82 35.4988 205.983 35.5984 206.068 35.7975C206.153 35.9966 206.196 36.2099 206.196 36.4375C206.196 36.665 206.132 36.8712 206.004 37.0561C205.89 37.241 205.699 37.3335 205.429 37.3335C204.039 37.3335 203.109 36.7077 202.641 35.4562C202.229 36.0393 201.711 36.5015 201.087 36.8428C200.476 37.1699 199.795 37.3335 199.043 37.3335C198.22 37.3335 197.489 37.1557 196.851 36.8001C196.226 36.4304 195.715 35.9255 195.318 35.2855C194.438 36.6508 193.282 37.3335 191.848 37.3335C191.664 37.3335 191.515 37.2481 191.401 37.0775C191.288 36.9068 191.231 36.6864 191.231 36.4161C191.231 35.8046 191.486 35.4988 191.997 35.4988ZM196.531 32.2562C196.531 33.266 196.758 34.0624 197.213 34.6455C197.681 35.2144 198.319 35.4988 199.128 35.4988C200.022 35.4988 200.739 35.193 201.278 34.5815C201.832 33.9699 202.108 33.1664 202.108 32.1709V29.7816C201.825 29.3976 201.463 29.0918 201.023 28.8642C200.583 28.6225 200.129 28.5016 199.661 28.5016C199.05 28.5016 198.511 28.6651 198.043 28.9922C197.574 29.3193 197.205 29.7673 196.936 30.3362C196.666 30.8909 196.531 31.5309 196.531 32.2562Z" fill="#FFFFFF"/>
<path d="M221.919 37.3335C221.522 37.3335 221.181 37.1912 220.897 36.9068C220.614 36.6081 220.472 36.2597 220.472 35.8615C220.472 35.4633 220.614 35.1219 220.897 34.8375C221.181 34.5531 221.522 34.4108 221.919 34.4108C222.316 34.4108 222.657 34.5531 222.941 34.8375C223.239 35.1219 223.388 35.4633 223.388 35.8615C223.388 36.2597 223.239 36.6081 222.941 36.9068C222.657 37.1912 222.316 37.3335 221.919 37.3335Z" fill="#FFFFFF"/>
<path d="M226.475 37.1201C226.148 37.0064 225.865 36.8357 225.623 36.6081C225.396 36.3664 225.247 36.0819 225.176 35.7548C225.432 35.513 225.73 35.2073 226.07 34.8375C226.411 34.4677 226.744 34.0268 227.071 33.5148C227.397 32.9886 227.667 32.3984 227.88 31.7442C228.107 31.09 228.22 30.3575 228.22 29.5469V26.9656C228.348 26.9229 228.497 26.8874 228.667 26.8589C228.838 26.8305 229.015 26.8163 229.2 26.8163C229.526 26.8163 229.845 26.866 230.157 26.9656V33.3015C230.157 34.0837 230.257 34.6455 230.455 34.9868C230.668 35.3282 231.002 35.4988 231.456 35.4988C231.655 35.4988 231.804 35.5842 231.903 35.7548C232.017 35.9255 232.073 36.153 232.073 36.4375C232.073 36.665 232.009 36.8712 231.882 37.0561C231.768 37.241 231.577 37.3335 231.307 37.3335C229.718 37.3335 228.738 36.5726 228.369 35.0508C227.773 35.961 227.142 36.6508 226.475 37.1201ZM229.221 23.8936C228.823 23.8936 228.483 23.7514 228.199 23.467C227.915 23.1825 227.773 22.8412 227.773 22.443C227.773 22.0163 227.908 21.6679 228.178 21.3977C228.462 21.1274 228.809 20.9923 229.221 20.9923C229.647 20.9923 229.994 21.1274 230.264 21.3977C230.534 21.6679 230.668 22.0163 230.668 22.443C230.668 22.8554 230.526 23.2039 230.243 23.4883C229.973 23.7585 229.632 23.8936 229.221 23.8936Z" fill="#FFFFFF"/>
<path d="M231.304 37.3335C231.119 37.3335 230.97 37.2481 230.857 37.0775C230.743 36.9068 230.686 36.6864 230.686 36.4161C230.686 35.8046 230.942 35.4988 231.453 35.4988C231.907 35.4988 232.311 35.2713 232.666 34.8162C233.035 34.3468 233.354 33.5717 233.624 32.4909L234.263 29.9949C234.859 27.7762 235.994 26.6669 237.669 26.6669C238.307 26.6669 238.846 26.8589 239.286 27.2429C239.726 27.6127 240.031 28.1176 240.202 28.7576C240.599 28.0891 241.11 27.5771 241.734 27.2216C242.359 26.8518 243.054 26.6669 243.82 26.6669C244.927 26.6669 245.779 27.0296 246.375 27.7549C246.985 28.4802 247.29 29.4971 247.29 30.8055V33.3015C247.29 34.0837 247.39 34.6455 247.588 34.9868C247.801 35.3282 248.135 35.4988 248.589 35.4988C248.787 35.4988 248.936 35.5842 249.036 35.7548C249.149 35.9255 249.206 36.153 249.206 36.4375C249.206 36.665 249.142 36.8712 249.014 37.0561C248.901 37.241 248.709 37.3335 248.44 37.3335C246.382 37.3335 245.353 36.0677 245.353 33.5362V30.8055C245.353 29.2696 244.75 28.5016 243.544 28.5016C242.919 28.5016 242.366 28.7505 241.883 29.2482C241.415 29.746 241.046 30.4358 240.776 31.3175C240.521 32.1993 240.393 33.2233 240.393 34.3895V37.0348C240.251 37.0775 240.095 37.113 239.925 37.1415C239.755 37.1699 239.591 37.1841 239.435 37.1841C239.095 37.1841 238.775 37.1344 238.477 37.0348V30.2295C238.477 29.6749 238.407 29.2482 238.265 28.9496C238.123 28.6509 237.867 28.5016 237.498 28.5016C237.2 28.5016 236.945 28.6367 236.732 28.9069C236.519 29.1771 236.335 29.6109 236.178 30.2082L235.391 33.2802C235.022 34.6882 234.511 35.7193 233.858 36.3735C233.205 37.0135 232.354 37.3335 231.304 37.3335Z" fill="#FFFFFF"/>
<path d="M254.989 48C253.797 48 252.939 47.5591 252.414 46.6774C251.889 45.7956 251.626 44.5796 251.626 43.0294V35.9468C251.144 36.4446 250.647 36.8001 250.136 37.0135C249.639 37.2268 249.079 37.3335 248.454 37.3335C248.27 37.3335 248.121 37.2481 248.007 37.0775C247.894 36.9068 247.837 36.6864 247.837 36.4161C247.837 36.1317 247.908 35.9113 248.05 35.7548C248.178 35.5842 248.355 35.4988 248.582 35.4988C249.079 35.4988 249.568 35.3353 250.051 35.0082C250.533 34.6668 251.058 34.1264 251.626 33.3868V21.035C251.626 20.267 251.683 19.5701 251.796 18.9444C251.924 18.3044 252.144 17.7568 252.456 17.3017C252.712 16.9177 253.038 16.6048 253.436 16.3631C253.847 16.1213 254.358 16.0004 254.968 16.0004C256.075 16.0004 256.927 16.4982 257.523 17.4937C258.119 18.4892 258.417 19.8972 258.417 21.7177C258.417 26.0554 257.09 29.8242 254.436 33.0242C255.373 33.3371 256.174 34.0055 256.841 35.0295C257.324 35.3424 257.821 35.4988 258.331 35.4988C258.516 35.4988 258.665 35.5842 258.779 35.7548C258.892 35.9255 258.949 36.153 258.949 36.4375C258.949 36.7077 258.878 36.921 258.736 37.0775C258.608 37.2481 258.424 37.3335 258.182 37.3335C258.083 37.3335 257.991 37.3335 257.906 37.3335C258.133 38.0446 258.303 38.8197 258.417 39.6588C258.544 40.5121 258.608 41.4081 258.608 42.3467C258.608 44.2098 258.296 45.6178 257.672 46.5707C257.061 47.5236 256.167 48 254.989 48ZM253.521 20.587V31.2322C254.486 29.9096 255.224 28.4305 255.734 26.7949C256.26 25.1452 256.522 23.4456 256.522 21.6963C256.522 20.4163 256.387 19.4421 256.118 18.7737C255.862 18.1053 255.479 17.771 254.968 17.771C254.003 17.771 253.521 18.7097 253.521 20.587ZM253.521 43.0294C253.521 44.096 253.641 44.8996 253.883 45.44C254.124 45.9805 254.528 46.2507 255.096 46.2507C255.621 46.2507 256.025 45.9022 256.309 45.2054C256.593 44.5227 256.735 43.5201 256.735 42.1974C256.735 39.9503 256.43 38.1441 255.82 36.7788C255.351 36.5797 254.911 36.345 254.5 36.0748C254.102 35.8046 253.776 35.5202 253.521 35.2215V43.0294Z" fill="#FFFFFF"/>
<path d="M258.331 35.4988C258.8 35.4988 259.254 35.2784 259.694 34.8375C260.148 34.3824 260.257 33.768 260.257 33.0242C260.2 32.6829 259.694 31.7637 259.694 31.4081C259.437 30.3819 259.637 28.9878 260.257 28.3745C260.623 27.5471 262.473 26.7373 263.59 27.2232C264.85 27.6192 265.112 28.2137 265.782 28.8572C266.403 27.9159 267.999 27.0905 268.762 27.1526C269.572 27.0766 270.879 27.5781 271.305 28.3745C271.953 29.0025 272.087 30.6807 271.953 31.719C271.652 32.6575 270.645 34.0019 269.975 34.7302C269.267 35.4988 268.912 35.8607 268.056 36.6161C267.199 37.3715 266.799 37.9449 265.782 38.222C264.916 38.222 264.382 37.4828 263.568 36.7788C262.754 36.0748 262.322 35.7548 261.695 35.2215C260.815 36.6295 259.644 37.3335 258.182 37.3335C257.998 37.3335 257.849 37.2481 257.736 37.0775C257.622 36.9068 257.565 36.6864 257.565 36.4161C257.565 35.8046 257.821 35.4988 258.331 35.4988ZM265.761 37.3335C266.669 37.3335 269.253 34.4448 269.792 33.8048C270.346 33.1648 271.305 31.5017 271.305 30.435C271.305 29.3968 270.54 28.1484 269.792 28.0079C269.127 27.7048 266.778 29.2959 265.897 30.1542C264.982 29.483 264.576 29.2661 262.995 28.0079C261.874 27.6068 260.257 29.1018 260.257 30.1542C260.257 31.1924 261.654 33.2405 262.214 33.9854C262.774 34.7302 264.799 36.8641 265.761 37.3335Z" fill="#FFFFFF"/>
<path d="M265.761 37.3335C266.669 37.3335 269.253 34.4448 269.792 33.8048C270.346 33.1648 271.305 31.5017 271.305 30.435C271.305 29.3968 270.54 28.1484 269.792 28.0079C269.127 27.7048 266.778 29.2959 265.897 30.1542C264.982 29.483 264.576 29.2661 262.995 28.0079C261.874 27.6068 260.257 29.1018 260.257 30.1542C260.257 31.1924 261.654 33.2405 262.214 33.9854C262.774 34.7302 264.799 36.8641 265.761 37.3335Z" fill="#00A24D"/>
</g>
</g>
</svg>
