<svg preserveAspectRatio="none" width="100%" height="100%" overflow="visible" style="display: block;" viewBox="0 0 40 40" fill="none" xmlns="http://www.w3.org/2000/svg">
<g id="Frame 749">
<path id="Vector" d="M3.59111 38C2.56741 38 1.71333 37.6535 1.02889 36.9605C0.344445 36.2675 0.00148148 35.402 0 34.364V12.386C0 11.3495 0.342963 10.4848 1.02889 9.79175C1.71482 9.09875 2.56815 8.7515 3.58889 8.75H13.3333V5.63375C13.3333 4.59875 13.6763 3.734 14.3622 3.0395C15.0481 2.345 15.9022 1.9985 16.9244 2H23.0778C24.1 2 24.9541 2.3465 25.64 3.0395C26.3259 3.7325 26.6681 4.59725 26.6667 5.63375V8.75H36.4111C37.4333 8.75 38.2867 9.09725 38.9711 9.79175C39.6556 10.4863 39.9985 11.351 40 12.386V34.3662C40 35.4012 39.657 36.266 38.9711 36.9605C38.2852 37.655 37.4319 38.0015 36.4111 38H3.59111ZM3.59111 35.75H36.4111C36.7519 35.75 37.0652 35.606 37.3511 35.318C37.637 35.03 37.7793 34.712 37.7778 34.364V12.386C37.7778 12.0395 37.6356 11.7215 37.3511 11.432C37.0667 11.1425 36.7533 10.9985 36.4111 11H3.58889C3.24815 11 2.93481 11.144 2.64889 11.432C2.36296 11.72 2.22074 12.038 2.22222 12.386V34.3662C2.22222 34.7112 2.36444 35.0285 2.64889 35.318C2.93333 35.6075 3.24667 35.7515 3.58889 35.75M15.5556 8.75H24.4444V5.63375C24.4444 5.28875 24.3022 4.9715 24.0178 4.682C23.7333 4.3925 23.42 4.2485 23.0778 4.25H16.9222C16.5815 4.25 16.2681 4.394 15.9822 4.682C15.6963 4.97 15.5541 5.28725 15.5556 5.63375V8.75Z" fill="#FFFFFF"/>
</g>
</svg>
