<svg preserveAspectRatio="none" width="100%" height="100%" overflow="visible" style="display: block;" viewBox="0 0 40 40" fill="none" xmlns="http://www.w3.org/2000/svg">
<g id="Frame 749">
<path id="Vector" d="M15.8316 8.22668C15.8316 7.11166 16.2706 6.04231 17.0519 5.25388C17.8332 4.46544 18.8929 4.0225 19.9978 4.0225C21.1028 4.0225 22.1625 4.46544 22.9438 5.25388C23.7251 6.04231 24.1641 7.11166 24.1641 8.22668C24.1641 9.34169 23.7251 10.411 22.9438 11.1995C22.1625 11.9879 21.1028 12.4309 19.9978 12.4309C18.8929 12.4309 17.8332 11.9879 17.0519 11.1995C16.2706 10.411 15.8316 9.34169 15.8316 8.22668ZM19.9978 1.5C18.2299 1.5 16.5344 2.2087 15.2843 3.4702C14.0342 4.7317 13.3319 6.44265 13.3319 8.22668C13.3319 10.0107 14.0342 11.7217 15.2843 12.9832C16.5344 14.2447 18.2299 14.9534 19.9978 14.9534C21.7658 14.9534 23.4613 14.2447 24.7114 12.9832C25.9615 11.7217 26.6638 10.0107 26.6638 8.22668C26.6638 6.44265 25.9615 4.7317 24.7114 3.4702C23.4613 2.2087 21.7658 1.5 19.9978 1.5ZM5.8327 9.06751C4.94874 9.06751 4.10099 9.42186 3.47594 10.0526C2.85088 10.6834 2.49973 11.5388 2.49973 12.4309C2.49973 13.3229 2.85088 14.1783 3.47594 14.8091C4.10099 15.4398 4.94874 15.7942 5.8327 15.7942C6.71666 15.7942 7.56442 15.4398 8.18947 14.8091C8.81453 14.1783 9.16568 13.3229 9.16568 12.4309C9.16568 11.5388 8.81453 10.6834 8.18947 10.0526C7.56442 9.42186 6.71666 9.06751 5.8327 9.06751ZM0 12.4309C-1.14137e-08 11.6579 0.150867 10.8925 0.443988 10.1784C0.737109 9.46433 1.16674 8.81548 1.70836 8.26893C2.24998 7.72238 2.89297 7.28883 3.60062 6.99304C4.30828 6.69725 5.06674 6.54501 5.8327 6.54501C6.59867 6.54501 7.35713 6.69725 8.06478 6.99304C8.77244 7.28883 9.41543 7.72238 9.95705 8.26893C10.4987 8.81548 10.9283 9.46433 11.2214 10.1784C11.5145 10.8925 11.6654 11.6579 11.6654 12.4309C11.6654 13.9919 11.0509 15.489 9.95705 16.5928C8.8632 17.6966 7.37963 18.3167 5.8327 18.3167C4.28578 18.3167 2.8022 17.6966 1.70836 16.5928C0.614515 15.489 2.3051e-08 13.9919 0 12.4309ZM34.163 9.06751C33.279 9.06751 32.4313 9.42186 31.8062 10.0526C31.1812 10.6834 30.83 11.5388 30.83 12.4309C30.83 13.3229 31.1812 14.1783 31.8062 14.8091C32.4313 15.4398 33.279 15.7942 34.163 15.7942C35.0469 15.7942 35.8947 15.4398 36.5198 14.8091C37.1448 14.1783 37.496 13.3229 37.496 12.4309C37.496 11.5388 37.1448 10.6834 36.5198 10.0526C35.8947 9.42186 35.0469 9.06751 34.163 9.06751ZM28.3303 12.4309C28.3303 10.8698 28.9448 9.37274 30.0386 8.26893C31.1325 7.16512 32.6161 6.54501 34.163 6.54501C35.7099 6.54501 37.1935 7.16512 38.2873 8.26893C39.3812 9.37274 39.9957 10.8698 39.9957 12.4309C39.9957 13.9919 39.3812 15.489 38.2873 16.5928C37.1935 17.6966 35.7099 18.3167 34.163 18.3167C32.6161 18.3167 31.1325 17.6966 30.0386 16.5928C28.9448 15.489 28.3303 13.9919 28.3303 12.4309ZM11.6654 21.2596C11.6654 19.6351 12.9719 18.3167 14.5818 18.3167H25.4139C27.0238 18.3167 28.3303 19.6351 28.3303 21.2596V30.0884C28.3303 32.3184 27.4524 34.4571 25.8898 36.034C24.3271 37.6109 22.2077 38.4967 19.9978 38.4967C17.7879 38.4967 15.6686 37.6109 14.1059 36.034C12.5433 34.4571 11.6654 32.3184 11.6654 30.0884V21.2596ZM14.5818 20.8392C14.4713 20.8392 14.3653 20.8835 14.2872 20.9623C14.209 21.0412 14.1651 21.1481 14.1651 21.2596V30.0884C14.1651 31.6494 14.7797 33.1465 15.8735 34.2503C16.9673 35.3541 18.4509 35.9742 19.9978 35.9742C21.5448 35.9742 23.0283 35.3541 24.1222 34.2503C25.216 33.1465 25.8305 31.6494 25.8305 30.0884V21.2596C25.8305 21.1481 25.7867 21.0412 25.7085 20.9623C25.6304 20.8835 25.5244 20.8392 25.4139 20.8392H14.5818ZM9.99892 21.263L2.16143 23.3819C1.79144 23.482 1.44462 23.6547 1.14077 23.89C0.836919 24.1254 0.581998 24.4189 0.390567 24.7537C0.199136 25.0885 0.0749445 25.4581 0.0250865 25.8414C-0.0247715 26.2246 0.0006805 26.6141 0.0999891 26.9874L1.5015 32.2661C1.82207 33.4744 2.40574 34.5953 3.20998 35.5472C4.01422 36.499 5.01878 37.2577 6.15044 37.7681C7.28209 38.2785 8.51234 38.5277 9.75153 38.4976C10.9907 38.4674 12.2076 38.1586 13.3136 37.5937C12.664 37.0048 12.0936 36.3326 11.6171 35.5942C11.436 35.6637 11.2505 35.7242 11.0605 35.7758C10.3206 35.9759 9.54881 36.027 8.78932 35.9262C8.02982 35.8253 7.29746 35.5745 6.63404 35.188C5.97062 34.8015 5.38915 34.2869 4.92282 33.6736C4.4565 33.0603 4.11446 32.3604 3.91624 31.6137L2.51473 26.3332C2.48624 26.2255 2.50131 26.1108 2.55662 26.0143C2.61194 25.9178 2.70297 25.8474 2.8097 25.8186L9.99892 23.8746V21.263ZM26.6838 37.592C27.1893 37.8498 27.7259 38.0567 28.2936 38.2125C29.3506 38.4984 30.4531 38.5713 31.5381 38.4272C32.623 38.283 33.6692 37.9246 34.6169 37.3724C35.5646 36.8203 36.3952 36.0851 37.0614 35.209C37.7275 34.3328 38.2161 33.3328 38.4992 32.2661L39.9007 26.9857C40.1008 26.232 39.996 25.4289 39.6094 24.7531C39.2228 24.0773 38.5861 23.5841 37.8393 23.3819L29.9968 21.263V23.8729L37.1927 25.8186C37.2991 25.8478 37.3897 25.9183 37.4447 26.0148C37.4997 26.1112 37.5145 26.2257 37.486 26.3332L36.0861 31.6137C35.875 32.409 35.501 33.1508 34.988 33.7911C34.4751 34.4315 33.8347 34.9561 33.1084 35.331C32.382 35.706 31.5857 35.9231 30.771 35.9681C29.9563 36.0131 29.1412 35.8852 28.3786 35.5925C27.902 36.3324 27.3304 37.0051 26.6838 37.592Z" fill="#FFFFFF"/>
</g>
</svg>
