<svg preserveAspectRatio="none" width="100%" height="100%" overflow="visible" style="display: block;" viewBox="0 0 40 40" fill="none" xmlns="http://www.w3.org/2000/svg">
<g id="Frame 749">
<path id="Vector" d="M27.3422 32.2173C27.6326 31.9288 27.7778 31.5784 27.7778 31.1663C27.7778 30.7527 27.6326 30.4016 27.3422 30.1132C27.0518 29.8232 26.6985 29.6782 26.2822 29.6782C25.8659 29.6782 25.5126 29.8232 25.2222 30.1132C24.9318 30.4031 24.7867 30.7542 24.7867 31.1663C24.7867 31.5784 24.9318 31.9288 25.2222 32.2173C25.5126 32.5072 25.8659 32.6522 26.2822 32.6522C26.6985 32.6522 27.0518 32.5072 27.3422 32.2173ZM32.1711 32.2173C32.4615 31.9288 32.6067 31.5784 32.6067 31.1663C32.6067 30.7527 32.4615 30.4016 32.1711 30.1132C31.8807 29.8232 31.5274 29.6782 31.1111 29.6782C30.6948 29.6782 30.3415 29.8232 30.0511 30.1132C29.7607 30.4031 29.6155 30.7542 29.6155 31.1663C29.6155 31.5784 29.7607 31.9288 30.0511 32.2173C30.3415 32.5072 30.6948 32.6522 31.1111 32.6522C31.5274 32.6522 31.8807 32.5072 32.1711 32.2173ZM37 32.2173C37.2904 31.9288 37.4356 31.5784 37.4356 31.1663C37.4356 30.7527 37.2904 30.4016 37 30.1132C36.7096 29.8232 36.3563 29.6782 35.94 29.6782C35.5237 29.6782 35.1704 29.8232 34.88 30.1132C34.5896 30.4031 34.4444 30.7542 34.4444 31.1663C34.4444 31.5784 34.5896 31.9288 34.88 32.2173C35.1704 32.5072 35.5237 32.6522 35.94 32.6522C36.3563 32.6522 36.7096 32.5072 37 32.2173ZM3.59111 35.3259C2.59556 35.3259 1.74815 34.9786 1.04889 34.2838C0.34963 33.5891 0 32.7479 0 31.7602V3.56571C0 2.57953 0.34963 1.73833 1.04889 1.04212C1.74815 0.347372 2.59556 0 3.59111 0H31.9667C32.9593 0 33.8059 0.347372 34.5067 1.04212C35.2059 1.73686 35.5555 2.57879 35.5555 3.56792V16.7048C35.1659 16.5708 34.7926 16.4619 34.4356 16.378C34.08 16.2956 33.7126 16.2131 33.3333 16.1307V3.56792C33.3333 3.22791 33.1911 2.91586 32.9067 2.63178C32.6222 2.3477 32.3081 2.2064 31.9644 2.20787H3.59111C3.24889 2.20787 2.93481 2.34917 2.64889 2.63178C2.36296 2.91439 2.22074 3.22644 2.22222 3.56792V31.7602C2.22222 32.0988 2.36444 32.4101 2.64889 32.6942C2.93333 32.9782 3.24667 33.1195 3.58889 33.1181H16.18C16.2333 33.5302 16.3022 33.9136 16.3867 34.2684C16.4711 34.6216 16.58 34.9741 16.7133 35.3259H3.59111ZM2.22222 30.9102V33.1181V2.20787V16.1307V15.9651V30.9102ZM7.77778 27.0906H16.5778C16.6593 26.7123 16.7704 26.3465 16.9111 25.9933L17.3556 24.8805H7.77778V27.0906ZM7.77778 18.7669H22.4C23.1304 18.2576 23.8496 17.8263 24.5578 17.4731C25.2659 17.1184 26.0259 16.8402 26.8378 16.6385V16.559H7.77778V18.7669ZM7.77778 10.4432H27.7778V8.23536H7.77778V10.4432ZM31.1111 40C28.6356 40 26.5356 39.1426 24.8111 37.4278C23.0852 35.713 22.2222 33.6259 22.2222 31.1663C22.2222 28.7067 23.0852 26.6196 24.8111 24.9048C26.537 23.19 28.637 22.3334 31.1111 22.3348C33.5852 22.3363 35.6859 23.1929 37.4133 24.9048C39.1407 26.6166 40.003 28.7038 40 31.1663C40 33.6244 39.1378 35.7108 37.4133 37.4256C35.6859 39.1404 33.5852 39.9978 31.1111 39.9978" fill="#FFFFFF"/>
</g>
</svg>
