<svg preserveAspectRatio="none" width="100%" height="100%" overflow="visible" style="display: block;" viewBox="0 0 16.7 15.6999" fill="none" xmlns="http://www.w3.org/2000/svg">
<path id="Vector" d="M15.5144 7.75777C14.506 8.03184 13.4525 8.10803 12.414 7.98199C11.3756 7.85594 10.3727 7.53013 9.46263 7.0232C8.55258 6.51626 7.75327 5.83815 7.11042 5.02766C6.46757 4.21716 5.9938 3.29019 5.7162 2.29977C5.54859 1.663 5.46531 1.00768 5.46842 0.350002C3.63701 1.03389 2.12776 2.3583 1.23086 4.0686C0.333962 5.77889 0.112734 7.75433 0.609711 9.61508C1.73946 13.7544 6.11665 16.2019 10.3964 15.0761C14.0013 14.1278 16.3657 10.9447 16.3499 7.48943C16.0747 7.59438 15.7939 7.68446 15.5086 7.75929L15.5144 7.75777Z" stroke="#FFFFFF" stroke-width="0.7" stroke-linecap="round" stroke-linejoin="round"/>
</svg>
