<svg preserveAspectRatio="none" width="100%" height="100%" overflow="visible" style="display: block;" viewBox="0 0 20 20" fill="none" xmlns="http://www.w3.org/2000/svg">
<g id="Vector">
<path d="M14.0201 10.0004C14.0201 7.78432 12.2221 5.98736 10.005 5.98713C7.78772 5.98713 5.98985 7.78418 5.98985 10.0004C5.99008 12.2165 7.78787 14.0137 10.005 14.0137C12.2219 14.0135 14.0199 12.2163 14.0201 10.0004ZM14.8451 10.0004C14.8448 12.6717 12.6775 14.8381 10.005 14.8383C7.33227 14.8383 5.16514 12.6719 5.16491 10.0004C5.16491 7.32879 7.33212 5.16256 10.005 5.16256C12.6777 5.16279 14.8451 7.32893 14.8451 10.0004Z" fill="#FFFFFF"/>
<path d="M2.93179 16.3407L4.77898 14.4944C4.98033 14.2931 5.30678 14.2931 5.50813 14.4944C5.70948 14.6956 5.70948 15.0219 5.50813 15.2232L3.66094 17.0695C3.45959 17.2708 3.13314 17.2708 2.93179 17.0695C2.73044 16.8683 2.73044 16.542 2.93179 16.3407ZM9.99392 16.3453C10.2787 16.3453 10.5104 16.5769 10.5104 16.8615V19.4853C10.5099 19.7693 10.2796 19.9997 9.99544 20C9.71069 20 9.47896 19.7684 9.47896 19.4838V16.86C9.47929 16.576 9.70979 16.3458 9.99392 16.3453ZM3.14142 9.48376C3.4259 9.48409 3.65791 9.71558 3.65791 10C3.65791 10.2844 3.4259 10.5159 3.14142 10.5163H0.516482C0.23173 10.5163 -3.70865e-07 10.2846 0 10C-8.11263e-08 9.71538 0.231731 9.48376 0.516482 9.48376H3.14142ZM5.51268 4.79047C5.71393 4.99163 5.71373 5.31801 5.51268 5.51929C5.31133 5.72055 4.98488 5.72055 4.78353 5.51929L2.92724 3.66384C2.72589 3.46258 2.72589 3.13628 2.92724 2.93502C3.12861 2.73407 3.45514 2.73386 3.65639 2.93502L5.51268 4.79047ZM17.0728 16.3453C17.274 16.5464 17.2738 16.8728 17.0728 17.0741C16.8714 17.2754 16.545 17.2754 16.3436 17.0741L14.4964 15.2278C14.2951 15.0265 14.2951 14.7002 14.4964 14.4989C14.6978 14.298 15.0243 14.2978 15.2256 14.4989L17.0728 16.3453ZM9.9924 5.87924e-06C10.2766 -0.00133756 10.5082 0.227727 10.5104 0.511697L10.5256 3.13241C10.5268 3.41668 10.2967 3.64707 10.0122 3.64865C9.72746 3.65017 9.49574 3.42154 9.49415 3.13696L9.47896 0.519289C9.47738 0.234672 9.70766 0.00159005 9.9924 5.87924e-06ZM19.4835 9.48376C19.7683 9.48376 20 9.71538 20 10C20 10.2846 19.7683 10.5163 19.4835 10.5163L16.8783 10.5147C16.5936 10.5147 16.3634 10.2846 16.3634 10C16.3634 9.71538 16.5936 9.48528 16.8783 9.48528L19.4835 9.48376ZM14.4964 4.78136L16.3482 2.93046C16.5495 2.72921 16.876 2.72921 17.0773 2.93046C17.2787 3.13172 17.2787 3.45802 17.0773 3.65928L15.2256 5.51018C15.0242 5.71144 14.6978 5.71144 14.4964 5.51018C14.2951 5.30892 14.2951 4.98262 14.4964 4.78136Z" fill="#FFFFFF"/>
</g>
</svg>
