<svg preserveAspectRatio="none" width="100%" height="100%" overflow="visible" style="display: block;" viewBox="0 0 71 48" fill="none" xmlns="http://www.w3.org/2000/svg">
<g id="Frame 516">
<rect width="71" height="48" rx="24" fill="#FFFFFF"/>
<path id="Vector" d="M23.5 37.9201H30.884V27.3602C30.884 26.8845 31.0393 26.4859 31.35 26.1642C31.6593 25.8411 32.0427 25.6796 32.5 25.6796H38.5C38.9573 25.6796 39.3413 25.8411 39.652 26.1642C39.9613 26.4859 40.116 26.8845 40.116 27.3602V37.9201H47.5V19.8411C47.5 19.6276 47.4553 19.4335 47.366 19.2588C47.2767 19.084 47.1547 18.9315 47 18.8012L36.232 10.3607C36.0267 10.1749 35.7827 10.082 35.5 10.082C35.2173 10.082 34.974 10.1749 34.77 10.3607L24 18.8012C23.8467 18.9343 23.7247 19.0868 23.634 19.2588C23.5433 19.4307 23.4987 19.6248 23.5 19.8411V37.9201ZM21.5 37.9201V19.8411C21.5 19.3087 21.6147 18.8046 21.844 18.329C22.0733 17.8534 22.3893 17.4617 22.792 17.1539L33.562 8.67182C34.126 8.22394 34.77 8 35.494 8C36.218 8 36.866 8.22394 37.438 8.67182L48.208 17.1518C48.612 17.4596 48.928 17.852 49.156 18.329C49.3853 18.8046 49.5 19.3087 49.5 19.8411V37.9201C49.5 38.4775 49.3007 38.9635 48.902 39.3781C48.5033 39.7927 48.036 40 47.5 40H39.732C39.2733 40 38.8893 39.8391 38.58 39.5175C38.2707 39.1944 38.116 38.795 38.116 38.3194V27.7616H32.884V38.3194C32.884 38.7964 32.7293 39.1958 32.42 39.5175C32.1107 39.8391 31.7273 40 31.27 40H23.5C22.964 40 22.4967 39.7927 22.098 39.3781C21.6993 38.9635 21.5 38.4775 21.5 37.9201Z" fill="#00A24D"/>
</g>
</svg>
