<svg preserveAspectRatio="none" width="100%" height="100%" overflow="visible" style="display: block;" viewBox="0 0 71 48" fill="none" xmlns="http://www.w3.org/2000/svg">
<g id="Frame 514">
<path id="Vector" d="M35.5 29C39.7985 29 43.6394 29.8729 46.3682 31.2373C49.1562 32.6314 50.5 34.3727 50.5 36V39H20.5V36C20.5 34.3727 21.8438 32.6314 24.6318 31.2373C27.3606 29.8729 31.2015 29 35.5 29ZM35.5 9C37.3565 9 39.1374 9.73705 40.4502 11.0498C41.7629 12.3626 42.5 14.1435 42.5 16L42.4912 16.3467C42.4055 18.077 41.681 19.7194 40.4502 20.9502C39.1374 22.2629 37.3565 23 35.5 23C33.6435 23 31.8626 22.2629 30.5498 20.9502C29.2371 19.6374 28.5 17.8565 28.5 16C28.5 14.1435 29.2371 12.3626 30.5498 11.0498C31.8626 9.73705 33.6435 9 35.5 9Z" stroke="#FFFFFF" stroke-width="2"/>
</g>
</svg>
