<svg preserveAspectRatio="none" width="100%" height="100%" overflow="visible" style="display: block;" viewBox="0 0 14.2222 16" fill="none" xmlns="http://www.w3.org/2000/svg">
<g id="Group">
<g id="Vector">
<path d="M6.33728 1.28465C6.33735 1.16705 6.3572 1.05063 6.3957 0.942015C6.43421 0.833403 6.49061 0.734734 6.56169 0.651638C6.63277 0.568543 6.71714 0.50265 6.80997 0.457721C6.90281 0.412793 7.00229 0.389707 7.10275 0.389786C7.2032 0.389864 7.30266 0.413104 7.39544 0.458177C7.48823 0.503251 7.57252 0.569276 7.6435 0.652483C7.71449 0.735689 7.77078 0.834447 7.80916 0.943119C7.84754 1.05179 7.86726 1.16825 7.86719 1.28584L6.33728 1.28465ZM7.86668 8.62621C7.86668 8.8637 7.78609 9.09146 7.64263 9.25939C7.49917 9.42732 7.30461 9.52166 7.10173 9.52166C6.89885 9.52166 6.70428 9.42732 6.56082 9.25939C6.41736 9.09146 6.33677 8.8637 6.33677 8.62621H7.86668ZM6.33677 8.63725C6.33677 8.39976 6.41736 8.172 6.56082 8.00407C6.70428 7.83613 6.89885 7.74179 7.10173 7.74179C7.30461 7.74179 7.49917 7.83613 7.64263 8.00407C7.78609 8.172 7.86668 8.39976 7.86668 8.63725H6.33677ZM7.86668 15.1045C7.86668 15.342 7.78609 15.5698 7.64263 15.7377C7.49917 15.9057 7.30461 16 7.10173 16C6.89885 16 6.70428 15.9057 6.56082 15.7377C6.41736 15.5698 6.33677 15.342 6.33677 15.1045H7.86668ZM7.86719 1.28584V1.30853L6.33728 1.30733V1.28465L7.86719 1.28584ZM7.86719 1.30853V1.57388L6.33728 1.57239V1.30733L7.86719 1.30853ZM7.86719 1.57388V1.83894L6.33728 1.83774V1.57239L7.86719 1.57388ZM7.86719 1.83894L7.86694 2.10429L6.33703 2.1031L6.33728 1.83774L7.86719 1.83894ZM7.86694 2.10429L7.86668 2.36964L6.33677 2.36845L6.33703 2.1031L7.86694 2.10429ZM7.86668 2.36964V2.635L6.33677 2.6344V2.36845L7.86668 2.36964ZM7.86668 2.635V8.62621H6.33677V2.6344L7.86668 2.635ZM7.86668 8.63725V15.1045H6.33677V8.63725H7.86668Z" fill="#FFFFFF"/>
<path d="M7.11158 0C7.38775 4.40936e-05 7.66122 0.0639946 7.91637 0.18772C8.17158 0.311488 8.40334 0.493064 8.59866 0.721731L13.9982 7.0424C14.2969 7.39211 14.2969 7.95894 13.9982 8.30863C13.6994 8.65825 13.2152 8.65831 12.9165 8.30863L7.51696 1.98796C7.46369 1.92559 7.40031 1.87597 7.3307 1.84222C7.2612 1.80853 7.1868 1.79096 7.11158 1.79092C7.03623 1.79092 6.96106 1.80846 6.89145 1.84222C6.82195 1.87597 6.75839 1.92568 6.70519 1.98796L1.30568 8.30863C1.00697 8.65814 0.522684 8.65814 0.223983 8.30863C-0.0746991 7.95898 -0.0746226 7.3921 0.223983 7.0424L5.6235 0.721731C5.81873 0.493171 6.05072 0.311484 6.30578 0.18772C6.56102 0.0639518 6.83531 0 7.11158 0Z" fill="#FFFFFF"/>
</g>
</g>
</svg>
