<svg preserveAspectRatio="none" width="100%" height="100%" overflow="visible" style="display: block;" viewBox="0 0 14.2222 16" fill="none" xmlns="http://www.w3.org/2000/svg">
<g id="Group">
<path id="Vector" d="M6.33728 1.28465C6.33735 1.16705 6.3572 1.05063 6.3957 0.942015C6.43421 0.833403 6.49061 0.734734 6.56169 0.651638C6.63277 0.568543 6.71714 0.502649 6.80997 0.457721C6.90281 0.412792 7.00229 0.389707 7.10275 0.389786C7.2032 0.389864 7.30266 0.413104 7.39544 0.458178C7.48823 0.503251 7.57252 0.569277 7.6435 0.652483C7.71449 0.735689 7.77078 0.834446 7.80916 0.943118C7.84754 1.05179 7.86726 1.16825 7.86719 1.28584L6.33728 1.28465ZM7.86668 8.62621C7.86668 8.8637 7.78609 9.09146 7.64263 9.25939C7.49917 9.42732 7.30461 9.52166 7.10173 9.52166C6.89885 9.52166 6.70428 9.42732 6.56082 9.25939C6.41736 9.09146 6.33677 8.8637 6.33677 8.62621H7.86668ZM6.33677 8.63725C6.33677 8.39976 6.41736 8.172 6.56082 8.00407C6.70428 7.83613 6.89885 7.74179 7.10173 7.74179C7.30461 7.74179 7.49917 7.83613 7.64263 8.00407C7.78609 8.172 7.86668 8.39976 7.86668 8.63725H6.33677ZM7.86668 15.1045C7.86668 15.342 7.78609 15.5698 7.64263 15.7377C7.49917 15.9057 7.30461 16 7.10173 16C6.89885 16 6.70428 15.9057 6.56082 15.7377C6.41736 15.5698 6.33677 15.342 6.33677 15.1045H7.86668ZM7.86719 1.28584V1.30853L6.33728 1.30733V1.28465L7.86719 1.28584ZM7.86719 1.30853V1.57388L6.33728 1.57239V1.30733L7.86719 1.30853ZM7.86719 1.57388V1.83893L6.33728 1.83774V1.57239L7.86719 1.57388ZM7.86719 1.83893L7.86694 2.10429L6.33703 2.1031L6.33728 1.83774L7.86719 1.83893ZM7.86694 2.10429L7.86668 2.36964L6.33677 2.36845L6.33703 2.1031L7.86694 2.10429ZM7.86668 2.36964V2.635L6.33677 2.6344V2.36845L7.86668 2.36964ZM7.86668 2.635V8.62621H6.33677V2.6344L7.86668 2.635ZM7.86668 8.63725V15.1045H6.33677V8.63725H7.86668Z" fill="#FFFFFF"/>
</g>
</svg>
