<svg width="261" height="54" viewBox="0 0 261 54" fill="none" xmlns="http://www.w3.org/2000/svg">
<path fill-rule="evenodd" clip-rule="evenodd" d="M148.023 32.9045C148.359 32.9045 148.611 33.0485 148.779 33.3365C148.971 33.6245 149.067 34.0085 149.067 34.4885C149.067 34.8725 148.959 35.2205 148.743 35.5325C148.551 35.8445 148.227 36.0005 147.771 36.0005C150.195 36.0005 152.15 34.8485 153.638 32.5445C154.31 33.6245 155.174 34.4765 156.23 35.1005C157.31 35.7005 158.546 36.0005 159.938 36.0005C161.138 36.0005 162.23 35.7605 163.214 35.2805C164.198 34.7765 165.038 34.0805 165.734 33.1925C166.526 35.0645 168.062 36.0005 170.342 36.0005L171.458 32.7245C171.146 32.8445 170.858 32.9045 170.594 32.9045C169.826 32.9045 169.262 32.6165 168.902 32.0405C168.566 31.4645 168.398 30.5165 168.398 29.1966V5.25684C167.87 5.08884 167.33 5.00484 166.778 5.00484C166.13 5.00484 165.578 5.08884 165.122 5.25684V19.8007C164.57 19.2487 163.886 18.8167 163.07 18.5047C162.254 18.1687 161.426 18.0007 160.586 18.0007C159.002 18.0007 157.586 18.4087 156.338 19.2247C155.114 20.0407 154.142 21.1566 153.422 22.5726C152.702 23.9886 152.342 25.6086 152.342 27.4326C152.342 27.7686 152.354 28.1046 152.378 28.4406C151.85 29.8085 151.19 30.9005 150.398 31.7165C149.63 32.5085 148.839 32.9045 148.023 32.9045ZM156.842 31.4645C156.074 30.4805 155.69 29.1365 155.69 27.4326C155.69 26.2086 155.918 25.1286 156.374 24.1926C156.83 23.2326 157.454 22.4766 158.246 21.9246C159.038 21.3726 159.95 21.0966 160.982 21.0966C161.774 21.0966 162.542 21.3006 163.286 21.7086C164.03 22.0926 164.642 22.6086 165.122 23.2566V27.2886C165.122 28.9686 164.654 30.3245 163.718 31.3565C162.806 32.3885 161.594 32.9045 160.082 32.9045C158.714 32.9045 157.634 32.4245 156.842 31.4645Z" fill="white"/>
<path d="M2.62797 25.9923C2.09997 25.8723 1.60798 25.6683 1.15199 25.3803C0.695992 25.0924 0.311996 24.6964 0 24.1924L1.22399 22.3564C2.37597 20.6524 3.40796 19.5004 4.31995 18.9004C5.25594 18.3004 6.26392 18.0004 7.34391 18.0004C8.75989 18.0004 9.87588 18.5044 10.6919 19.5124C11.5319 20.4964 11.9519 21.7924 11.9519 23.4004V27.7923C11.9519 29.5443 12.1679 30.8403 12.5998 31.6803C13.0558 32.4963 13.7518 32.9043 14.6878 32.9043C15.8878 32.9043 16.7758 32.2563 17.3518 30.9603C17.9278 29.6643 18.2158 27.9003 18.2158 25.6683V23.5084C18.4318 23.4364 18.6718 23.3764 18.9358 23.3284C19.2238 23.2804 19.5118 23.2564 19.7998 23.2564C20.3998 23.2564 20.9397 23.3404 21.4197 23.5084V25.6683C21.4197 28.1883 21.6597 30.0243 22.1397 31.1763C22.6437 32.3283 23.3997 32.9043 24.4077 32.9043C25.2237 32.9043 25.8957 32.5443 26.4237 31.8243C26.9517 31.0803 27.3477 30.0723 27.6117 28.8003C27.8757 27.5043 28.0077 26.0163 28.0077 24.3364C28.0077 24.1924 28.0077 24.0484 28.0077 23.9044C26.8317 23.4724 25.9677 22.8964 25.4157 22.1764C25.5117 21.4564 25.7157 20.7844 26.0277 20.1604C26.3637 19.5124 26.7717 18.9964 27.2517 18.6124C27.7317 18.2044 28.2117 18.0004 28.6917 18.0004C29.4596 18.0004 30.0836 18.5764 30.5636 19.7284C31.0436 20.8804 31.2836 22.3684 31.2836 24.1924C31.2836 26.5203 31.0196 28.5723 30.4916 30.3483C29.9636 32.1243 29.1716 33.5162 28.1157 34.5242C27.0837 35.5082 25.8117 36.0002 24.2997 36.0002C23.3157 36.0002 22.4277 35.7482 21.6357 35.2442C20.8437 34.7402 20.2078 34.0202 19.7278 33.0843C19.1518 33.9962 18.4078 34.7162 17.4958 35.2442C16.5838 35.7482 15.5638 36.0002 14.4358 36.0002C12.6118 36.0002 11.1959 35.3162 10.1879 33.9482C9.17989 32.5803 8.67589 30.6603 8.67589 28.1883V24.0124C8.67589 23.1004 8.5439 22.3924 8.2799 21.8884C8.0399 21.3604 7.63191 21.0964 7.05591 21.0964C6.69592 21.0964 6.28792 21.2644 5.83193 21.6004C5.39993 21.9124 4.81194 22.6444 4.06795 23.7964L2.62797 25.9923Z" fill="white"/>
<path d="M39.4935 35.4962C39.2535 35.5682 38.9895 35.6282 38.7015 35.6762C38.4135 35.7242 38.1375 35.7482 37.8735 35.7482C37.3215 35.7482 36.7575 35.6642 36.1815 35.4962V23.7964C35.3175 24.0844 34.4175 24.3124 33.4816 24.4804C32.5216 24.6244 31.6576 24.6964 30.8896 24.6964C30.0496 24.6964 29.4376 24.5884 29.0536 24.3724C28.6696 24.1564 28.4776 23.7364 28.4776 23.1124C28.4776 22.6804 28.5616 22.3684 28.7296 22.1764C28.8976 21.9604 29.0896 21.8524 29.3056 21.8524H30.2776C31.2376 21.8524 32.2096 21.7564 33.1936 21.5644C34.1776 21.3724 35.1735 21.0724 36.1815 20.6644V7.45256C36.1815 5.05259 36.6855 3.20462 37.6935 1.90863C38.7255 0.612648 40.2135 -0.0233449 42.1575 0.000654521C43.9334 0.0246539 45.3134 0.696646 46.2974 2.01663C47.3054 3.33661 47.8094 5.05259 47.8094 7.16457C47.8094 9.44454 47.4254 11.6045 46.6574 13.6445C45.8894 15.6605 44.9054 17.4364 43.7054 18.9724C44.1854 18.8764 44.6654 18.8284 45.1454 18.8284C46.9454 18.8284 48.3734 19.4644 49.4294 20.7364C50.5094 22.0084 51.0494 23.7124 51.0494 25.8483V28.9443C51.0494 30.3363 51.2173 31.3443 51.5533 31.9683C51.9133 32.5923 52.5013 32.9043 53.3173 32.9043C53.7013 32.9043 53.9773 33.0603 54.1453 33.3722C54.3133 33.6602 54.3973 34.0322 54.3973 34.4882C54.3973 34.9442 54.2773 35.3042 54.0373 35.5682C53.8213 35.8562 53.5093 36.0002 53.1013 36.0002C51.3733 36.0002 50.0414 35.4482 49.1054 34.3442C48.1934 33.2163 47.7374 31.6323 47.7374 29.5923V25.7763C47.7374 24.5524 47.4614 23.6044 46.9094 22.9324C46.3814 22.2364 45.6254 21.8884 44.6414 21.8884C43.6814 21.8884 42.8175 22.2124 42.0495 22.8604C41.2815 23.4844 40.6695 24.3484 40.2135 25.4523C39.7575 26.5563 39.5175 27.8283 39.4935 29.2683V35.4962ZM39.3855 7.41657V19.1884C41.0415 17.7484 42.3255 15.9965 43.2374 13.9325C44.1494 11.8445 44.6054 9.57654 44.6054 7.12857C44.6054 5.78458 44.3774 4.7646 43.9214 4.06861C43.4894 3.34861 42.8535 2.98862 42.0135 2.98862C40.2615 2.98862 39.3855 4.4646 39.3855 7.41657Z" fill="white"/>
<path d="M53.353 32.9043C54.169 32.9043 54.961 32.5083 55.729 31.7163C56.521 30.9003 57.181 29.8083 57.709 28.4403C57.685 28.1043 57.673 27.7683 57.673 27.4323C57.673 25.6083 58.033 23.9884 58.753 22.5724C59.473 21.1564 60.445 20.0404 61.6689 19.2244C62.9169 18.4084 64.3329 18.0004 65.9169 18.0004C66.7569 18.0004 67.5849 18.1684 68.4009 18.5044C69.2168 18.8164 69.9008 19.2484 70.4528 19.8004V18.3244C70.6688 18.2524 70.9208 18.1924 71.2088 18.1444C71.4968 18.0964 71.7968 18.0724 72.1088 18.0724C72.6848 18.0724 73.2248 18.1564 73.7288 18.3244V28.8723C73.7288 30.1443 73.9208 31.1403 74.3048 31.8603C74.7128 32.5563 75.3848 32.9043 76.3208 32.9043C76.7288 32.9043 77.0048 33.0723 77.1488 33.4083C77.2927 33.7442 77.3647 34.1042 77.3647 34.4882C77.3647 34.8722 77.2568 35.2202 77.0407 35.5322C76.8488 35.8442 76.5248 36.0002 76.0688 36.0002C73.7168 36.0002 72.1448 34.9442 71.3528 32.8323C70.6568 33.8162 69.7808 34.5962 68.7249 35.1722C67.6929 35.7242 66.5409 36.0002 65.2689 36.0002C63.8769 36.0002 62.6409 35.7002 61.5609 35.1002C60.505 34.4762 59.641 33.6242 58.969 32.5443C57.481 34.8482 55.5253 36.0002 53.1013 36.0002C52.7893 36.0002 52.537 35.8562 52.3451 35.5682C52.1531 35.2802 52.0571 34.9082 52.0571 34.4522C52.0571 33.4202 52.4891 32.9043 53.353 32.9043ZM61.0209 27.4323C61.0209 29.1363 61.4049 30.4803 62.1729 31.4643C62.9649 32.4243 64.0449 32.9043 65.4129 32.9043C66.9249 32.9043 68.1369 32.3883 69.0489 31.3563C69.9848 30.3243 70.4528 28.9683 70.4528 27.2883V23.2564C69.9728 22.6084 69.3608 22.0924 68.6169 21.7084C67.8729 21.3004 67.1049 21.0964 66.3129 21.0964C65.2809 21.0964 64.3689 21.3724 63.5769 21.9244C62.7849 22.4764 62.1609 23.2324 61.7049 24.1924C61.2489 25.1283 61.0209 26.2083 61.0209 27.4323Z" fill="white"/>
<path d="M76.3098 32.9043C76.9098 32.9043 77.5938 32.7243 78.3618 32.3643C79.1538 32.0043 79.9217 31.3923 80.6657 30.5283C81.4097 29.6643 82.0217 28.5003 82.5017 27.0363C82.9817 25.5483 83.2217 23.6884 83.2217 21.4564V18.0004H80.5577C80.3897 17.6164 80.3057 17.1364 80.3057 16.5605C80.3057 15.9845 80.3897 15.5045 80.5577 15.1205H83.2217V8.74855C83.6777 8.58055 84.2297 8.49655 84.8777 8.49655C85.4537 8.49655 86.0057 8.58055 86.5337 8.74855V15.1205H91.8976C92.0896 15.5045 92.1856 15.9845 92.1856 16.5605C92.1856 17.1364 92.0896 17.6164 91.8976 18.0004H86.5337V25.4523C86.5337 27.8523 86.8937 29.7003 87.6137 30.9963C88.3576 32.2683 89.4016 32.9043 90.7456 32.9043C91.4416 32.9043 91.7896 33.4323 91.7896 34.4882C91.7896 34.9442 91.6696 35.3042 91.4296 35.5682C91.2136 35.8562 90.9016 36.0002 90.4936 36.0002C88.9336 36.0002 87.6137 35.5562 86.5337 34.6682C85.4777 33.7802 84.6977 32.5443 84.1937 30.9603C83.1857 32.6883 81.9497 33.9602 80.4857 34.7762C79.0218 35.5922 77.5458 36.0002 76.0578 36.0002C75.7458 36.0002 75.4938 35.8442 75.3018 35.5322C75.1098 35.2442 75.0138 34.8842 75.0138 34.4522C75.0138 33.9962 75.1218 33.6242 75.3378 33.3363C75.5538 33.0483 75.8778 32.9043 76.3098 32.9043Z" fill="white"/>
<path d="M90.7588 32.9043C91.2628 32.9043 91.8028 32.7483 92.3788 32.4363C92.9548 32.1243 93.4948 31.6443 93.9988 30.9963C94.5988 30.1803 95.0308 29.2443 95.2948 28.1883C95.5828 27.1323 95.7628 26.0643 95.8348 24.9844V18.5044C96.0508 18.4324 96.3028 18.3724 96.5908 18.3244C96.8788 18.2764 97.1788 18.2524 97.4908 18.2524C98.0427 18.2524 98.5827 18.3364 99.1107 18.5044V28.8723C99.1107 30.1443 99.3027 31.1403 99.6867 31.8603C100.095 32.5563 100.767 32.9043 101.703 32.9043C102.111 32.9043 102.387 33.0723 102.531 33.4083C102.675 33.7442 102.747 34.1042 102.747 34.4882C102.747 34.8722 102.639 35.2202 102.423 35.5322C102.231 35.8442 101.907 36.0002 101.451 36.0002C98.9547 36.0002 97.3347 34.8242 96.5908 32.4723C96.2548 33.0243 95.8948 33.4922 95.5108 33.8762C94.8628 34.5242 94.1068 35.0402 93.2428 35.4242C92.4028 35.8082 91.4908 36.0002 90.5068 36.0002C90.1708 36.0002 89.9188 35.8322 89.7508 35.4962C89.5588 35.1842 89.4628 34.8362 89.4628 34.4522C89.4628 34.0442 89.5708 33.6842 89.7868 33.3722C89.9788 33.0603 90.3028 32.9043 90.7588 32.9043ZM97.5267 13.3205C96.8548 13.3205 96.2788 13.0805 95.7988 12.6005C95.3188 12.1205 95.0788 11.5445 95.0788 10.8725C95.0788 10.1525 95.3068 9.56454 95.7628 9.10854C96.2428 8.65255 96.8308 8.42455 97.5267 8.42455C98.2467 8.42455 98.8347 8.65255 99.2907 9.10854C99.7467 9.56454 99.9747 10.1525 99.9747 10.8725C99.9747 11.5685 99.7347 12.1565 99.2547 12.6365C98.7987 13.0925 98.2227 13.3205 97.5267 13.3205Z" fill="white"/>
<path d="M101.44 36.0002C101.128 36.0002 100.876 35.8562 100.684 35.5682C100.492 35.2802 100.396 34.9082 100.396 34.4522C100.396 33.9722 100.516 33.6002 100.756 33.3363C100.972 33.0483 101.272 32.9043 101.656 32.9043C102.712 32.9043 103.72 32.4363 104.68 31.5003C105.664 30.5403 106.756 28.9443 107.956 26.7123V7.45256C107.956 5.05259 108.46 3.20462 109.468 1.90863C110.5 0.612648 111.988 -0.0233449 113.932 0.000654521C115.708 0.0246539 117.088 0.696646 118.072 2.01663C119.08 3.33661 119.584 5.05259 119.584 7.16457C119.584 8.86855 119.272 10.7645 118.648 12.8525C118.024 14.9405 117.196 16.9445 116.164 18.8644C116.404 18.8404 116.656 18.8284 116.92 18.8284C118.72 18.8284 120.148 19.4644 121.204 20.7364C122.284 22.0084 122.824 23.7124 122.824 25.8483V28.9443C122.824 30.3363 122.992 31.3443 123.328 31.9683C123.688 32.5923 124.276 32.9043 125.092 32.9043C125.476 32.9043 125.752 33.0603 125.92 33.3722C126.088 33.6602 126.172 34.0322 126.172 34.4882C126.172 34.9442 126.052 35.3042 125.812 35.5682C125.596 35.8562 125.284 36.0002 124.876 36.0002C123.148 36.0002 121.816 35.4482 120.88 34.3442C119.968 33.2163 119.512 31.6323 119.512 29.5923V25.7763C119.512 24.5524 119.236 23.6044 118.684 22.9324C118.156 22.2364 117.4 21.8884 116.416 21.8884C115.456 21.8884 114.592 22.2124 113.824 22.8604C113.056 23.4844 112.444 24.3484 111.988 25.4523C111.532 26.5563 111.292 27.8283 111.268 29.2683V35.4962C111.028 35.5682 110.764 35.6282 110.476 35.6762C110.188 35.7242 109.912 35.7482 109.648 35.7482C109.096 35.7482 108.532 35.6642 107.956 35.4962V32.5443C106.972 33.8162 105.964 34.7162 104.932 35.2442C103.924 35.7482 102.76 36.0002 101.44 36.0002ZM111.16 7.41657V21.3124C112.24 19.6564 113.164 17.9884 113.932 16.3085C114.724 14.6285 115.324 13.0085 115.732 11.4485C116.164 9.86454 116.38 8.42455 116.38 7.12857C116.38 5.78458 116.152 4.7646 115.696 4.06861C115.264 3.34861 114.628 2.98862 113.788 2.98862C112.036 2.98862 111.16 4.4646 111.16 7.41657Z" fill="white"/>
<path d="M125.141 32.9043C125.957 32.9043 126.749 32.5083 127.517 31.7163C128.309 30.9003 128.969 29.8083 129.497 28.4403C129.473 28.1043 129.461 27.7683 129.461 27.4323C129.461 25.6083 129.821 23.9884 130.541 22.5724C131.261 21.1564 132.233 20.0404 133.457 19.2244C134.705 18.4084 136.121 18.0004 137.705 18.0004C138.545 18.0004 139.373 18.1684 140.189 18.5044C141.005 18.8164 141.689 19.2484 142.241 19.8004V18.3244C142.457 18.2524 142.709 18.1924 142.997 18.1444C143.285 18.0964 143.585 18.0724 143.897 18.0724C144.473 18.0724 145.013 18.1564 145.517 18.3244V28.8723C145.517 30.1443 145.709 31.1403 146.093 31.8603C146.501 32.5563 147.173 32.9043 148.109 32.9043C148.517 32.9043 148.793 33.0723 148.937 33.4083C149.081 33.7442 149.153 34.1042 149.153 34.4882C149.153 34.8722 149.045 35.2202 148.829 35.5322C148.637 35.8442 148.313 36.0002 147.857 36.0002C145.505 36.0002 143.933 34.9442 143.141 32.8323C142.445 33.8162 141.569 34.5962 140.513 35.1722C139.481 35.7242 138.329 36.0002 137.057 36.0002C135.665 36.0002 134.429 35.7002 133.349 35.1002C132.293 34.4762 131.429 33.6242 130.757 32.5443C129.269 34.8482 127.313 36.0002 124.889 36.0002C124.577 36.0002 124.325 35.8562 124.133 35.5682C123.941 35.2802 123.845 34.9082 123.845 34.4522C123.845 33.4202 124.277 32.9043 125.141 32.9043ZM132.809 27.4323C132.809 29.1363 133.193 30.4803 133.961 31.4643C134.753 32.4243 135.833 32.9043 137.201 32.9043C138.713 32.9043 139.925 32.3883 140.837 31.3563C141.773 30.3243 142.241 28.9683 142.241 27.2883V23.2564C141.761 22.6084 141.149 22.0924 140.405 21.7084C139.661 21.3004 138.893 21.0964 138.101 21.0964C137.069 21.0964 136.157 21.3724 135.365 21.9244C134.573 22.4764 133.949 23.2324 133.493 24.1924C133.037 25.1283 132.809 26.2083 132.809 27.4323Z" fill="white"/>
<path d="M175.744 36.0002C175.072 36.0002 174.496 35.7602 174.016 35.2802C173.536 34.7762 173.296 34.1882 173.296 33.5163C173.296 32.8443 173.536 32.2683 174.016 31.7883C174.496 31.3083 175.072 31.0683 175.744 31.0683C176.416 31.0683 176.992 31.3083 177.472 31.7883C177.976 32.2683 178.228 32.8443 178.228 33.5163C178.228 34.1882 177.976 34.7762 177.472 35.2802C176.992 35.7602 176.416 36.0002 175.744 36.0002Z" fill="white"/>
<path d="M183.448 35.6402C182.896 35.4482 182.416 35.1602 182.008 34.7762C181.624 34.3682 181.372 33.8882 181.252 33.3363C181.684 32.9283 182.188 32.4123 182.764 31.7883C183.34 31.1643 183.904 30.4203 184.456 29.5563C185.008 28.6683 185.464 27.6723 185.824 26.5683C186.208 25.4643 186.4 24.2284 186.4 22.8604V18.5044C186.616 18.4324 186.868 18.3724 187.156 18.3244C187.444 18.2764 187.744 18.2524 188.056 18.2524C188.608 18.2524 189.148 18.3364 189.676 18.5044V29.1963C189.676 30.5163 189.844 31.4643 190.18 32.0403C190.54 32.6163 191.104 32.9043 191.872 32.9043C192.208 32.9043 192.46 33.0483 192.628 33.3363C192.82 33.6242 192.916 34.0082 192.916 34.4882C192.916 34.8722 192.808 35.2202 192.592 35.5322C192.4 35.8442 192.076 36.0002 191.62 36.0002C188.932 36.0002 187.276 34.7162 186.652 32.1483C185.644 33.6842 184.576 34.8482 183.448 35.6402ZM188.092 13.3205C187.42 13.3205 186.844 13.0805 186.364 12.6005C185.884 12.1205 185.644 11.5445 185.644 10.8725C185.644 10.1525 185.872 9.56454 186.328 9.10854C186.808 8.65255 187.396 8.42455 188.092 8.42455C188.812 8.42455 189.4 8.65255 189.856 9.10854C190.312 9.56454 190.54 10.1525 190.54 10.8725C190.54 11.5685 190.3 12.1565 189.82 12.6365C189.364 13.0925 188.788 13.3205 188.092 13.3205Z" fill="white"/>
<path d="M191.615 36.0002C191.303 36.0002 191.051 35.8562 190.859 35.5682C190.667 35.2802 190.571 34.9082 190.571 34.4522C190.571 33.4202 191.003 32.9043 191.867 32.9043C192.635 32.9043 193.319 32.5203 193.919 31.7523C194.543 30.9603 195.083 29.6523 195.539 27.8283L196.619 23.6164C197.627 19.8724 199.547 18.0004 202.379 18.0004C203.459 18.0004 204.371 18.3244 205.115 18.9724C205.859 19.5964 206.375 20.4484 206.663 21.5284C207.335 20.4004 208.199 19.5364 209.255 18.9364C210.311 18.3124 211.487 18.0004 212.783 18.0004C214.655 18.0004 216.095 18.6124 217.103 19.8364C218.135 21.0604 218.651 22.7764 218.651 24.9844V29.1963C218.651 30.5163 218.819 31.4643 219.155 32.0403C219.515 32.6163 220.079 32.9043 220.847 32.9043C221.183 32.9043 221.435 33.0483 221.603 33.3363C221.795 33.6242 221.891 34.0082 221.891 34.4882C221.891 34.8722 221.783 35.2202 221.567 35.5322C221.375 35.8442 221.051 36.0002 220.595 36.0002C217.115 36.0002 215.375 33.8642 215.375 29.5923V24.9844C215.375 22.3924 214.355 21.0964 212.315 21.0964C211.259 21.0964 210.323 21.5164 209.507 22.3564C208.715 23.1964 208.091 24.3604 207.635 25.8483C207.203 27.3363 206.987 29.0643 206.987 31.0323V35.4962C206.747 35.5682 206.483 35.6282 206.195 35.6762C205.907 35.7242 205.631 35.7482 205.367 35.7482C204.791 35.7482 204.251 35.6642 203.747 35.4962V24.0124C203.747 23.0764 203.627 22.3564 203.387 21.8524C203.147 21.3484 202.715 21.0964 202.091 21.0964C201.587 21.0964 201.155 21.3244 200.795 21.7804C200.435 22.2364 200.123 22.9684 199.859 23.9764L198.527 29.1603C197.903 31.5363 197.039 33.2762 195.935 34.3802C194.831 35.4602 193.391 36.0002 191.615 36.0002Z" fill="white"/>
<path d="M231.671 54C229.655 54 228.203 53.256 227.315 51.768C226.427 50.28 225.983 48.2281 225.983 45.6121V33.6602C225.167 34.5002 224.327 35.1002 223.463 35.4602C222.623 35.8202 221.675 36.0002 220.619 36.0002C220.307 36.0002 220.055 35.8562 219.863 35.5682C219.671 35.2802 219.575 34.9082 219.575 34.4522C219.575 33.9722 219.695 33.6002 219.935 33.3363C220.151 33.0483 220.451 32.9043 220.835 32.9043C221.675 32.9043 222.503 32.6283 223.319 32.0763C224.135 31.5003 225.023 30.5883 225.983 29.3403V8.49655C225.983 7.20057 226.079 6.02458 226.271 4.96859C226.487 3.88861 226.859 2.96462 227.387 2.19663C227.819 1.54864 228.371 1.02064 229.043 0.612648C229.739 0.204652 230.603 0.000654521 231.635 0.000654521C233.507 0.000654521 234.947 0.840644 235.955 2.52062C236.963 4.2006 237.467 6.57658 237.467 9.64854C237.467 16.9684 235.223 23.3284 230.735 28.7283C232.319 29.2563 233.675 30.3843 234.803 32.1123C235.619 32.6403 236.459 32.9043 237.323 32.9043C237.635 32.9043 237.887 33.0483 238.079 33.3363C238.271 33.6242 238.367 34.0082 238.367 34.4882C238.367 34.9442 238.247 35.3042 238.007 35.5682C237.791 35.8562 237.479 36.0002 237.071 36.0002C236.903 36.0002 236.747 36.0002 236.603 36.0002C236.987 37.2002 237.275 38.5082 237.467 39.9242C237.683 41.3642 237.791 42.8761 237.791 44.4601C237.791 47.6041 237.263 49.98 236.207 51.588C235.175 53.196 233.663 54 231.671 54ZM229.187 7.74056V25.7043C230.819 23.4724 232.067 20.9764 232.931 18.2164C233.819 15.4325 234.263 12.5645 234.263 9.61254C234.263 7.45257 234.035 5.80858 233.579 4.6806C233.147 3.55261 232.499 2.98862 231.635 2.98862C230.003 2.98862 229.187 4.5726 229.187 7.74056ZM229.187 45.6121C229.187 47.4121 229.391 48.7681 229.799 49.6801C230.207 50.592 230.891 51.048 231.851 51.048C232.739 51.048 233.423 50.46 233.903 49.2841C234.383 48.1321 234.623 46.4401 234.623 44.2081C234.623 40.4162 234.107 37.3682 233.075 35.0642C232.283 34.7282 231.539 34.3322 230.843 33.8762C230.171 33.4202 229.619 32.9403 229.187 32.4363V45.6121Z" fill="white"/>
<path d="M237.323 32.9043C238.115 32.9043 238.883 32.5323 239.627 31.7883C240.395 31.0203 240.579 29.9835 240.579 28.7283C240.483 28.1523 239.627 26.6012 239.627 26.0012C239.193 24.2695 239.531 21.9168 240.579 20.882C241.199 19.4858 244.327 18.1191 246.215 18.9391C248.347 19.6074 248.791 20.6106 249.923 21.6965C250.973 20.1081 253.672 18.7152 254.963 18.8201C256.332 18.6917 258.544 19.5381 259.264 20.882C260.36 21.9418 260.586 24.7737 260.36 26.5259C259.85 28.1095 258.148 30.3783 257.014 31.6072C255.816 32.9043 255.217 33.515 253.768 34.7897C252.319 36.0645 251.644 37.032 249.923 37.4996C248.459 37.4996 247.556 36.2522 246.179 35.0642C244.803 33.8762 244.072 33.3363 243.011 32.4363C241.523 34.8122 239.543 36.0002 237.071 36.0002C236.759 36.0002 236.507 35.8562 236.315 35.5682C236.123 35.2802 236.027 34.9082 236.027 34.4522C236.027 33.4202 236.459 32.9043 237.323 32.9043ZM249.887 36.0002C251.423 36.0002 255.794 31.1256 256.706 30.0456C257.642 28.9657 259.264 26.1591 259.264 24.3591C259.264 22.6071 257.97 20.5004 256.706 20.2634C255.58 19.7518 251.608 22.4369 250.117 23.8852C248.57 22.7526 247.883 22.3865 245.209 20.2634C243.314 19.5864 240.579 22.1092 240.579 23.8852C240.579 25.6372 242.941 29.0934 243.889 30.3503C244.837 31.6072 248.261 35.2082 249.887 36.0002Z" fill="white"/>
<path d="M249.887 36.0002C251.423 36.0002 255.794 31.1256 256.706 30.0456C257.642 28.9657 259.264 26.1591 259.264 24.3591C259.264 22.6071 257.97 20.5004 256.706 20.2634C255.58 19.7518 251.608 22.4369 250.117 23.8852C248.57 22.7526 247.883 22.3865 245.209 20.2634C243.314 19.5864 240.579 22.1092 240.579 23.8852C240.579 25.6372 242.941 29.0934 243.889 30.3503C244.837 31.6072 248.261 35.2082 249.887 36.0002Z" fill="#00A24D"/>
</svg>
